<?xml version="1.0" encoding="UTF-8" standalone="no"?>
<svg
   xmlns:dc="http://purl.org/dc/elements/1.1/"
   xmlns:cc="http://creativecommons.org/ns#"
   xmlns:rdf="http://www.w3.org/1999/02/22-rdf-syntax-ns#"
   xmlns:svg="http://www.w3.org/2000/svg"
   xmlns="http://www.w3.org/2000/svg"
   xmlns:sodipodi="http://sodipodi.sourceforge.net/DTD/sodipodi-0.dtd"
   xmlns:inkscape="http://www.inkscape.org/namespaces/inkscape"
   sodipodi:docname="logo2.svg"
   inkscape:version="1.0 (4035a4fb49, 2020-05-01)"
   id="svg8"
   version="1.1"
   viewBox="0 0 210 297"
   height="297mm"
   width="210mm">
  <defs
     id="defs2" />
  <sodipodi:namedview
     inkscape:lockguides="true"
     inkscape:guide-bbox="true"
     showguides="false"
     inkscape:window-maximized="1"
     inkscape:window-y="-8"
     inkscape:window-x="-8"
     inkscape:window-height="538"
     inkscape:window-width="1024"
     showgrid="false"
     inkscape:document-rotation="0"
     inkscape:current-layer="layer1"
     inkscape:document-units="mm"
     inkscape:cy="332.68841"
     inkscape:cx="396.85039"
     inkscape:zoom="0.35"
     inkscape:pageshadow="2"
     inkscape:pageopacity="0.0"
     borderopacity="1.0"
     bordercolor="#666666"
     pagecolor="#ffffff"
     id="base">
    <sodipodi:guide
       inkscape:locked="true"
       id="guide58728"
       orientation="1,0"
       position="-101.29762,39.220238" />
    <inkscape:grid
       id="grid58730"
       type="xygrid" />
  </sodipodi:namedview>
  <metadata
     id="metadata5">
    <rdf:RDF>
      <cc:Work
         rdf:about="">
        <dc:format>image/svg+xml</dc:format>
        <dc:type
           rdf:resource="http://purl.org/dc/dcmitype/StillImage" />
        <dc:title></dc:title>
      </cc:Work>
    </rdf:RDF>
  </metadata>
  <g
     id="layer1"
     inkscape:groupmode="layer"
     inkscape:label="Capa 1">
    <g
       transform="matrix(1.2161106,0,0,1.1891146,-77.917536,-89.463802)"
       id="g58722">
      <path
         id="path58726"
         d="m 39.499577,220.02834 c -1.500662,-0.64362 -3.751654,-2.2396 -5.002205,-3.54661 l -2.27373,-2.37639 -0.244908,-63.62849 -0.244907,-63.628482 1.985478,-3.40897 c 3.73653,-6.415442 -0.224654,-6.105475 78.024165,-6.105475 75.96855,0 73.56099,-0.14715 78.27701,4.784311 l 2.27373,2.377603 0.24484,63.546523 c 0.27035,70.16915 0.43469,68.00279 -5.41968,71.44711 -2.95292,1.7373 -4.36939,1.77063 -73.95095,1.74015 -57.092762,-0.025 -71.472968,-0.2595 -73.668843,-1.20128 z m 145.946143,-0.76151 c 1.23554,-0.6033 3.17958,-2.4331 4.32008,-4.06624 l 2.07366,-2.96934 v -62.26958 c 0,-70.289949 0.3181,-66.988136 -6.75219,-70.08688 -3.50299,-1.53528 -7.53527,-1.625661 -73.28309,-1.642586 -77.721558,-0.02001 -73.950121,-0.317467 -77.457051,6.109164 -1.573117,2.882819 -1.668741,6.619484 -1.668741,65.208522 0,69.78585 -0.358437,66.06181 6.654131,69.13413 3.631959,1.59122 6.990279,1.66733 73.835901,1.67338 54.22569,0.005 70.53787,-0.24123 72.2773,-1.09057 z M 112.07431,188.5291 c -13.343157,-4.71737 -17.115847,-6.70232 -12.957541,-6.81744 1.907011,-0.0527 1.982921,-0.15471 0.52651,-0.70699 -1.448675,-0.54934 -1.719179,-1.68219 -1.818984,-7.61768 l -0.117239,-6.97238 -6.593816,-0.25786 c -4.133533,-0.16164 -6.593816,0.083 -6.593816,0.65571 0,1.60376 6.286981,7.69504 9.104739,8.82132 1.495261,0.59766 2.718655,1.63117 2.718655,2.29666 0,0.97598 -2.71595,1.20998 -14.043448,1.20998 -8.033385,0 -14.275387,-0.36214 -14.585409,-0.8462 -0.298078,-0.46541 1.04183,-1.81099 2.977573,-2.99018 3.587148,-2.18516 8.370939,-7.05297 8.370939,-8.51795 0,-0.46732 -7.429854,-0.8103 -17.553193,-0.8103 -12.439828,0 -17.871122,-0.3068 -18.644583,-1.05317 -0.793378,-0.76559 -1.09139,-7.33876 -1.09139,-24.07247 0,-19.75645 0.202581,-23.21479 1.429201,-24.39846 1.252714,-1.20884 6.025876,-1.37915 38.653405,-1.37915 36.011547,0 37.283457,0.0572 39.043187,1.75528 1.64941,1.59165 1.81898,2.92548 1.81898,14.30766 v 12.55236 l 13.51452,-0.37048 c 17.40912,-0.47724 16.49871,-1.43647 16.49871,17.38374 v 13.64287 l 10.90744,3.9341 c 5.99909,2.16376 10.91035,4.2037 10.9139,4.53319 0.004,0.3295 -0.70976,0.81005 -1.58514,1.06788 -3.26312,0.96111 -45.20129,9.30188 -46.56115,9.2602 -0.778,-0.0239 -7.22742,-2.09845 -14.33205,-4.61024 z m 38.38327,-1.87708 c 5.31616,-1.1224 5.3909,-1.17756 2.89664,-2.13776 -1.40816,-0.54209 -2.94293,-0.98562 -3.41059,-0.98562 -0.46765,0 -0.85028,-0.34056 -0.85028,-0.75681 0,-0.41624 2.33621,-1.02177 5.19158,-1.34561 10.07796,-1.14299 10.46411,-1.4884 3.99433,-3.57294 l -5.80112,-1.8691 -19.20011,2.86281 c -10.56007,1.57456 -20.32562,2.87712 -21.70122,2.89459 -4.24806,0.054 -2.78604,1.353 3.84065,3.41253 6.86968,2.13505 6.7323,2.14237 24.86589,-1.32558 3.90836,-0.74747 7.29736,-1.17447 7.5311,-0.94892 0.23374,0.22555 -2.14548,0.90978 -5.28713,1.5205 l -5.71211,1.11038 3.18322,1.13641 c 3.93993,1.40655 3.82167,1.4065 10.45915,0.005 z m -45.26453,-6.36451 c -0.8849,-0.22252 -2.11271,-0.20789 -2.72847,0.0325 -0.61576,0.24042 0.10826,0.42248 1.60892,0.40459 1.50066,-0.0179 2.00446,-0.21458 1.11955,-0.4371 z m 6.36645,-0.87764 c -0.88491,-0.22252 -2.11272,-0.20789 -2.72848,0.0325 -0.61575,0.24041 0.10826,0.42247 1.60892,0.40459 1.50066,-0.0179 2.00446,-0.21459 1.11956,-0.4371 z m 6.36644,-0.87764 c -0.8849,-0.22252 -2.11272,-0.20789 -2.72847,0.0325 -0.61576,0.24041 0.10825,0.42247 1.60892,0.40458 1.50066,-0.0179 2.00446,-0.21458 1.11955,-0.4371 z m 7.74799,-0.88883 c -1.1255,-0.20919 -2.96722,-0.20919 -4.09271,0 -1.1255,0.20919 -0.20464,0.38035 2.04635,0.38035 2.251,0 3.17186,-0.17116 2.04636,-0.38035 z m 6.80388,-0.86646 c -0.88491,-0.22251 -2.11272,-0.20788 -2.72847,0.0325 -0.61576,0.24041 0.10825,0.42247 1.60892,0.40458 1.50066,-0.0179 2.00446,-0.21458 1.11955,-0.4371 z m 6.36645,-0.87764 c -0.88491,-0.22252 -2.11273,-0.20789 -2.72848,0.0325 -0.61575,0.24042 0.10826,0.42247 1.60892,0.40459 1.50066,-0.0179 2.00446,-0.21459 1.11956,-0.4371 z m -13.69389,-2.47886 c 10.91764,-1.21518 20.78293,-2.41038 21.92285,-2.656 2.04547,-0.44074 2.06928,-0.59844 1.81898,-12.05227 l -0.2536,-11.60569 -22.28255,0.31018 c -12.2554,0.17059 -22.5895,0.4901 -22.96467,0.71002 -0.37517,0.21992 -0.68212,6.4981 -0.68212,13.95152 0,11.1409 0.23045,13.55166 1.29543,13.55166 0.71249,0 10.22805,-0.99424 21.14568,-2.20942 z m -3.31142,-6.50958 c -1.79417,-3.3937 -2.09644,-3.57101 -6.18791,-3.62968 -3.24007,-0.0465 -3.85272,-0.24782 -2.48262,-0.81596 1.00044,-0.41485 3.15789,-0.78203 4.79433,-0.81596 2.32424,-0.0482 3.20205,0.41846 4.01133,2.13243 0.56979,1.20675 1.284,2.1941 1.58716,2.1941 0.30315,0 1.15831,-3.0337 1.90036,-6.74156 0.74206,-3.70785 1.86826,-6.90268 2.50267,-7.09961 0.69046,-0.21434 1.92562,1.43488 3.0771,4.10863 1.8626,4.32497 2.04243,4.46864 5.66773,4.52837 2.925,0.0482 3.34614,0.2267 1.92509,0.81596 -4.11856,1.70783 -6.40806,1.02908 -8.14106,-2.41352 -1.88183,-3.73823 -1.90469,-3.7082 -3.45216,4.53488 -0.62682,3.33891 -1.62927,6.22806 -2.22769,6.42033 -0.59841,0.19227 -1.93686,-1.25601 -2.97433,-3.21841 z m 23.37175,8.1108 c -0.88491,-0.22252 -2.11272,-0.20789 -2.72848,0.0325 -0.61575,0.24041 0.10826,0.42247 1.60892,0.40459 1.50066,-0.0179 2.00447,-0.21459 1.11956,-0.43711 z m 5.45695,-0.87764 c -0.88491,-0.22252 -2.11272,-0.20789 -2.72848,0.0325 -0.61575,0.24041 0.10826,0.42247 1.60892,0.40458 1.50066,-0.0179 2.00447,-0.21458 1.11956,-0.4371 z M 98.161802,150.67974 c 0,-5.83851 1.332498,-6.64501 10.978868,-6.64501 h 8.12046 v -12.28699 -12.28699 l -35.242808,-5e-5 -35.24281,-5e-5 0.207485,17.33349 c 0.114117,9.53341 0.216434,17.43222 0.227373,17.55289 0.01094,0.12068 11.479485,0.21941 25.48566,0.21941 h 25.465772 z m -19.762257,-3.32462 c -0.514762,-0.61945 -1.801361,-2.78404 -2.85911,-4.8102 -1.845327,-3.53479 -2.116704,-3.69697 -6.703878,-4.00645 l -4.7807,-0.32253 5.714997,-0.16235 c 5.702594,-0.162 5.719372,-0.15521 7.730681,3.12881 1.936878,3.16248 2.027732,3.20537 2.323856,1.09705 0.481042,-3.42488 3.650104,-15.96038 4.15906,-16.45151 1.254266,-1.21034 3.014006,1.01138 4.920083,6.21175 l 2.111381,5.7605 4.255062,0.27611 4.255063,0.27612 -4.925891,0.42931 -4.92589,0.42931 -2.029164,-4.38988 -2.029166,-4.38988 -0.64888,2.63293 c -3.855857,15.64569 -4.420567,16.8745 -6.567504,14.29091 z m 81.304545,-3.02784 c -1.30894,-1.2631 -0.62643,-13.03893 0.87566,-15.10836 1.10492,-1.52226 1.36893,-3.30251 1.03763,-6.99701 -0.51119,-5.70044 -0.16933,-7.14937 1.6868,-7.14937 1.09923,0 1.22052,1.12731 0.70826,6.58232 -0.38582,4.10856 -0.28403,6.58231 0.27083,6.58231 2.3396,0 4.11582,11.09254 2.44786,15.28696 -0.5547,1.39491 -5.79334,1.99365 -7.02704,0.80315 z m 1.87058,-10.16602 c -0.20176,-1.56879 -0.36683,-0.28523 -0.36683,2.85234 0,3.13757 0.16507,4.42112 0.36683,2.85233 0.20174,-1.56878 0.20174,-4.13589 0,-5.70467 z m 3.88953,3.29116 c 0,-2.65487 -0.40927,-4.82703 -0.90949,-4.82703 -0.50022,0 -0.90949,2.17216 -0.90949,4.82703 0,2.65487 0.40927,4.82703 0.90949,4.82703 0.50022,0 0.90949,-2.17216 0.90949,-4.82703 z m 4.57946,5.76237 c -1.39716,-2.51919 -1.15347,-4.24136 0.87749,-6.20119 2.66635,-2.57298 2.57472,-11.37168 -0.15554,-14.93523 -1.66907,-2.17849 -1.81278,-2.9197 -0.92899,-4.79149 1.31844,-2.79233 3.12251,-2.9231 2.40763,-0.17452 -0.73954,2.84337 1.50801,4.58213 4.15555,3.21483 1.47864,-0.76363 1.82207,-1.52933 1.40505,-3.13266 -0.60785,-2.33708 0.77789,-2.94991 1.65917,-0.73375 0.96549,2.42791 0.59696,5.38201 -0.81219,6.51054 -1.91261,1.53175 -1.91261,12.51053 0,14.04228 1.40915,1.12853 1.77768,4.08263 0.81219,6.51053 -0.97009,2.43949 -2.34926,1.5126 -1.73897,-1.1687 0.46451,-2.04087 0.22961,-2.66487 -1.16385,-3.09165 -3.13192,-0.95922 -4.96405,0.35323 -4.38606,3.14197 0.59146,2.85374 -0.72116,3.35196 -2.13148,0.80904 z"
         style="fill:#009be3;stroke-width:0.893425" />
      <path
         id="path58724"
         d="m 146.1375,188.21324 c 0.62527,-0.24346 1.64845,-0.24346 2.27373,0 0.62527,0.24347 0.11368,0.44268 -1.13687,0.44268 -1.25055,0 -1.76214,-0.19921 -1.13686,-0.44268 z m 4.11166,-0.82664 c 0.30222,-0.29163 1.08665,-0.3228 1.74319,-0.0692 0.72553,0.28016 0.51003,0.48812 -0.54949,0.53023 -0.95875,0.0381 -1.49592,-0.16931 -1.1937,-0.46095 z m 3.63796,-0.87764 c 0.30223,-0.29163 1.08666,-0.32281 1.7432,-0.0693 0.72553,0.28016 0.51002,0.48813 -0.54949,0.53024 -0.95875,0.0381 -1.49592,-0.16931 -1.19371,-0.46096 z m -20.00882,-0.87764 c 0.30223,-0.29163 1.08666,-0.32281 1.7432,-0.0692 0.72553,0.28016 0.51002,0.48813 -0.54949,0.53024 -0.95875,0.0381 -1.49592,-0.16932 -1.19371,-0.46096 z m -35.716498,-3.00787 c 0,-0.46755 0.613907,-0.8501 1.364238,-0.8501 1.74683,0 1.74683,0.54818 0,1.19503 -0.750331,0.27784 -1.364238,0.12262 -1.364238,-0.34493 z m 52.996848,0.37494 c 0.30222,-0.29163 1.08665,-0.3228 1.74319,-0.0693 0.72553,0.28017 0.51003,0.48813 -0.54948,0.53024 -0.95875,0.0381 -1.49593,-0.16931 -1.19371,-0.46095 z m 20.67199,-0.3474 c -0.75033,-0.46792 -0.95496,-0.85076 -0.45474,-0.85076 0.50022,0 1.5234,0.38284 2.27373,0.85076 0.75033,0.46793 0.95496,0.85076 0.45474,0.85076 -0.50022,0 -1.5234,-0.38283 -2.27373,-0.85076 z m -63.41811,-1.40788 c 0.30222,-0.29164 1.08666,-0.32281 1.7432,-0.0693 0.72553,0.28016 0.51002,0.48813 -0.54949,0.53024 -0.95875,0.0381 -1.49592,-0.16932 -1.19371,-0.46096 z m 4.96595,-0.92308 c 0.61576,-0.24041 1.84357,-0.25504 2.72848,-0.0325 0.8849,0.22251 0.3811,0.41921 -1.11956,0.4371 -1.50066,0.0179 -2.22467,-0.16418 -1.60892,-0.40459 z m 6.36644,-0.87764 c 0.61576,-0.24041 1.84357,-0.25504 2.72848,-0.0325 0.88491,0.22252 0.38111,0.41922 -1.11956,0.4371 -1.50066,0.0179 -2.22467,-0.16417 -1.60892,-0.40458 z m 6.36645,-0.87765 c 0.61575,-0.2404 1.84357,-0.25503 2.72847,-0.0325 0.88491,0.22252 0.38111,0.41922 -1.11955,0.4371 -1.50066,0.0179 -2.22467,-0.16417 -1.60892,-0.40458 z m -58.872291,-0.64688 c 0,-0.18971 0.635163,-0.58012 1.411475,-0.86759 0.809379,-0.29971 1.174447,-0.15258 0.855816,0.34492 -0.534106,0.83394 -2.267291,1.23348 -2.267291,0.52267 z m 27.284756,-0.53272 c 0,-1.12459 0.643975,-1.12459 1.364237,0 0.309154,0.4827 0.128672,0.87764 -0.40107,0.87764 -0.529742,0 -0.963167,-0.39494 -0.963167,-0.87764 z m 37.516535,0.27266 c 0.87539,-0.22075 2.30784,-0.22075 3.18323,0 0.87538,0.22075 0.15916,0.40137 -1.59162,0.40137 -1.75077,0 -2.46699,-0.18062 -1.59161,-0.40137 z m 26.1479,-0.27266 c -0.75034,-0.46792 -0.95497,-0.85076 -0.45475,-0.85076 0.50022,0 1.5234,0.38284 2.27373,0.85076 0.75033,0.46792 0.95497,0.85076 0.45474,0.85076 -0.50022,0 -1.52339,-0.38284 -2.27372,-0.85076 z m -37.95234,-0.53024 c 0.30221,-0.29164 1.08665,-0.32281 1.74319,-0.0692 0.72553,0.28016 0.51002,0.48813 -0.54948,0.53024 -0.95876,0.0381 -1.49593,-0.16932 -1.19371,-0.46096 z m 17.69883,-0.0455 c 0.61576,-0.2404 1.84357,-0.25503 2.72848,-0.0325 0.88491,0.22252 0.3811,0.41922 -1.11956,0.4371 -1.50066,0.0179 -2.22467,-0.16417 -1.60892,-0.40458 z m 5.47426,-0.8832 c 0.62528,-0.24347 1.64846,-0.24347 2.27373,0 0.62528,0.24346 0.11369,0.44267 -1.13686,0.44267 -1.25055,0 -1.76214,-0.19921 -1.13687,-0.44267 z m -67.984515,-3.36812 c 1.174832,-1.20676 2.340694,-2.19411 2.590804,-2.19411 0.250111,0 -0.50648,0.98735 -1.681312,2.19411 -1.174831,1.20676 -2.340693,2.1941 -2.590804,2.1941 -0.25011,0 0.506481,-0.98734 1.681312,-2.1941 z m 11.754559,-0.21941 -2.204894,-2.41352 2.501103,2.12768 c 2.337657,1.98864 2.918184,2.69935 2.204894,2.69935 -0.162915,0 -1.288411,-1.08608 -2.501103,-2.41351 z m 37.604316,1.88327 c 0.30223,-0.29163 1.08666,-0.32281 1.7432,-0.0693 0.72553,0.28016 0.51002,0.48813 -0.54949,0.53024 -0.95875,0.0381 -1.49592,-0.16932 -1.19371,-0.46096 z m 6.36645,-0.87764 c 0.30222,-0.29164 1.08666,-0.32281 1.74319,-0.0693 0.72553,0.28016 0.51003,0.48813 -0.54949,0.53024 -0.95874,0.0381 -1.49592,-0.16932 -1.1937,-0.46096 z m -52.483629,-4.99288 c 0.341542,-0.86554 0.850095,-1.35264 1.130115,-1.08242 0.280021,0.27022 5.77e-4,0.97839 -0.620986,1.57373 -0.898229,0.86032 -1.002697,0.75951 -0.509129,-0.49131 z m 42.817379,-2.83527 c -1.26473,-2.18361 -1.91071,-3.73832 -1.43552,-3.45492 0.47518,0.2834 1.53208,1.77378 2.34865,3.31195 0.81657,1.53818 1.93916,3.08684 2.49463,3.44148 0.72618,0.46362 0.71237,0.64857 -0.0491,0.65823 -0.5825,0.007 -2.09388,-1.77314 -3.35861,-3.95674 z M 42.778302,163.8927 c -0.731541,-0.85059 -0.960307,-7.76136 -0.777148,-23.47693 l 0.259566,-22.27151 0.211039,22.42376 c 0.150878,16.03143 0.522161,22.72398 1.30243,23.47693 0.600264,0.57924 0.855013,1.05317 0.566108,1.05317 -0.288905,0 -0.991802,-0.54244 -1.561995,-1.20542 z m 82.811858,-0.54987 c 0,-1.20675 0.20643,-1.70043 0.45874,-1.09705 0.2523,0.60338 0.2523,1.59073 0,2.19411 -0.25231,0.60338 -0.45874,0.1097 -0.45874,-1.09706 z m 6.44551,-1.97469 c -0.90719,-1.09422 -2.65179,-5.87936 -1.83985,-5.04644 0.63939,0.65592 3.3397,6.14349 3.02307,6.14349 -0.15052,0 -0.68297,-0.49367 -1.18322,-1.09705 z m -5.53602,-3.29116 c 0,-1.20676 0.20644,-1.70043 0.45874,-1.09705 0.2523,0.60338 0.2523,1.59072 0,2.1941 -0.2523,0.60338 -0.45874,0.10971 -0.45874,-1.09705 z m 0.76589,-4.77524 c 0,-0.21286 0.40927,-0.63111 0.90949,-0.92943 0.50022,-0.29833 0.9095,-0.12417 0.9095,0.38702 0,0.51119 -0.40928,0.92944 -0.9095,0.92944 -0.50022,0 -0.90949,-0.17416 -0.90949,-0.38703 z m -21.61672,-6.38356 c 1.36665,-0.20026 3.82228,-0.20429 5.45695,-0.009 1.63468,0.19533 0.51651,0.35917 -2.48481,0.3641 -3.00132,0.005 -4.33879,-0.15489 -2.97214,-0.35514 z m 28.645,-0.88397 c 1.61456,-0.19388 4.47946,-0.19707 6.36645,-0.007 1.88697,0.18999 0.56597,0.34862 -2.93557,0.35251 -3.50155,0.004 -5.04544,-0.15155 -3.43088,-0.34543 z m 15.593,-0.90245 c -1.13129,-1.39199 -1.09912,-1.42303 0.34339,-0.33136 1.51499,1.14652 1.99677,1.86723 1.24822,1.86723 -0.18885,0 -0.90508,-0.69114 -1.59161,-1.53587 z m -12.37055,-0.74966 c 0.30222,-0.29163 1.08666,-0.32281 1.7432,-0.0693 0.72552,0.28017 0.51002,0.48813 -0.54949,0.53025 -0.95875,0.0381 -1.49593,-0.16932 -1.19371,-0.46096 z m 22.94572,-0.3474 c -0.30915,-0.4827 -0.12867,-0.87764 0.40107,-0.87764 0.52975,0 0.96317,0.39494 0.96317,0.87764 0,1.1246 -0.64397,1.1246 -1.36424,0 z m 4.99382,-6.40258 0.44636,-7.20087 0.27842,6.49727 c 0.15313,3.5735 -0.0478,6.8139 -0.44636,7.20088 -0.39863,0.38697 -0.52391,-2.5368 -0.27842,-6.49728 z m -89.048126,4.78016 c -1.48566,-2.67877 -1.178023,-3.42479 0.473827,-1.14903 0.801352,1.10403 1.243783,2.21308 0.983178,2.46456 -0.260604,0.25147 -0.916256,-0.34051 -1.457005,-1.31553 z m 94.210306,1.03733 c -0.33348,-0.3218 -0.58039,-1.40788 -0.54868,-2.41352 0.053,-1.6812 0.1278,-1.65916 0.92903,0.2737 0.89067,2.14866 0.70592,3.18806 -0.38035,2.13982 z m 7.59302,-0.46016 c -0.008,-0.81625 0.39535,-1.72817 0.89557,-2.02649 1.15105,-0.68648 1.15105,0.47535 0,2.1941 -0.75979,1.13452 -0.88356,1.11135 -0.89557,-0.16761 z m -15.18418,-5.97588 c 0,-3.13757 0.16507,-4.42113 0.36682,-2.85234 0.20174,1.56878 0.20174,4.13589 0,5.70467 -0.20175,1.56879 -0.36682,0.28524 -0.36682,-2.85233 z m -92.842506,1.15227 c 0.869553,-0.21967 2.506638,-0.22764 3.637967,-0.0177 1.131328,0.20992 0.419875,0.38965 -1.581007,0.39939 -2.000882,0.01 -2.926515,-0.16201 -2.05696,-0.38168 z m 18.418455,-2.62572 c -0.768904,-1.7758 -1.267489,-3.60658 -1.107967,-4.06838 0.159522,-0.46181 0.841529,0.77285 1.51557,2.74369 0.95144,2.78194 1.75588,3.66242 3.596864,3.93689 l 2.371335,0.35353 -2.488898,0.1315 c -2.061291,0.10891 -2.729082,-0.42321 -3.886904,-3.09723 z m 71.404471,-4.61825 c 0,-0.45422 0.40459,-1.06714 0.89908,-1.36205 0.51555,-0.30747 0.66802,0.0448 0.35744,0.82585 -0.60462,1.52044 -1.25652,1.79863 -1.25652,0.5362 z m -76.383391,-2.90414 c -0.0077,-0.85376 0.659277,-1.53587 1.501893,-1.53587 0.833701,0 1.145415,0.2962 0.692699,0.65823 -0.452716,0.36203 -1.128567,1.05317 -1.501893,1.53587 -0.387359,0.50085 -0.684752,0.21826 -0.692699,-0.65823 z m 79.341221,-3.72998 c -0.0101,-1.93081 0.1679,-2.82403 0.39554,-1.98492 0.22763,0.8391 0.23589,2.41885 0.0184,3.51057 -0.21756,1.0917 -0.40381,0.40517 -0.41391,-1.52565 z m 9.77505,-3.07174 c -0.75033,-0.46792 -0.95496,-0.85077 -0.45474,-0.85077 0.50022,0 1.5234,0.38285 2.27373,0.85077 0.75033,0.46792 0.95497,0.85076 0.45474,0.85076 -0.50022,0 -1.52339,-0.38284 -2.27373,-0.85076 z m -2.72847,-2.58114 c 0,-0.93691 0.35014,-1.91231 0.77811,-2.16754 0.42796,-0.25523 0.58488,0.51134 0.34872,1.70349 -0.51297,2.58945 -1.12683,2.84225 -1.12683,0.46405 z m 8.75253,-0.52454 c -0.87764,-2.207 -0.61874,-2.77647 0.45341,-0.9973 0.53086,0.88094 0.77361,1.78658 0.53945,2.01255 -0.23417,0.22596 -0.68096,-0.2309 -0.99286,-1.01525 z m -58.89059,-1.06312 c -1.13129,-1.39199 -1.09913,-1.42304 0.34338,-0.33136 0.87539,0.66248 1.59161,1.35362 1.59161,1.53587 0,0.72233 -0.74686,0.25742 -1.93499,-1.20451 z m 42.40738,-1.09706 c -0.30916,-0.4827 -0.12868,-0.87764 0.40107,-0.87764 0.52974,0 0.96317,0.39494 0.96317,0.87764 0,1.1246 -0.64398,1.1246 -1.36424,0 z"
         style="fill:#0075da;stroke-width:0.893425" />
    </g>
  </g>
</svg>
